<svg xmlns="http://www.w3.org/2000/svg" viewBox="0 0 512 512" width="512" height="512">
  <defs>
    <!-- Background Gradient for badge -->
    <linearGradient id="bodyGrad" x1="0%" y1="0%" x2="100%" y2="100%">
      <stop offset="0%" stop-color="#6366F1" />
      <stop offset="50%" stop-color="#4F46E5" />
      <stop offset="100%" stop-color="#3730A3" />
    </linearGradient>

    <!-- Top Flap Gradient -->
    <linearGradient id="flapGrad" x1="0%" y1="0%" x2="100%" y2="100%">
      <stop offset="0%" stop-color="#818CF8" />
      <stop offset="100%" stop-color="#4F46E5" />
    </linearGradient>

    <!-- Golden Star / Bolt Gradient -->
    <linearGradient id="goldGrad" x1="0%" y1="0%" x2="100%" y2="100%">
      <stop offset="0%" stop-color="#FDE047" />
      <stop offset="50%" stop-color="#F59E0B" />
      <stop offset="100%" stop-color="#D97706" />
    </linearGradient>

    <!-- Accent Cyan Gradient -->
    <linearGradient id="cyanGrad" x1="0%" y1="0%" x2="100%" y2="100%">
      <stop offset="0%" stop-color="#38BDF8" />
      <stop offset="100%" stop-color="#0284C7" />
    </linearGradient>

    <!-- Glow & Shadow Filters -->
    <filter id="envelopeGlow" x="-20%" y="-20%" width="140%" height="140%">
      <feDropShadow dx="0" dy="16" stdDeviation="20" flood-color="#312E81" flood-opacity="0.5" />
    </filter>
    <filter id="goldGlow" x="-30%" y="-30%" width="160%" height="160%">
      <feDropShadow dx="0" dy="8" stdDeviation="12" flood-color="#D97706" flood-opacity="0.6" />
    </filter>
    <filter id="flapShadow" x="-10%" y="-10%" width="120%" height="120%">
      <feDropShadow dx="0" dy="6" stdDeviation="8" flood-color="#1E1B4B" flood-opacity="0.35" />
    </filter>
  </defs>

  <!-- Mail Factory 3D Isometric / Front Floating Envelope -->
  <g filter="url(#envelopeGlow)">
    <!-- Base Envelope Rounded Card -->
    <rect x="48" y="100" width="416" height="312" rx="44" fill="url(#bodyGrad)" />

    <!-- Inner Glow Border -->
    <rect x="50" y="102" width="412" height="308" rx="42" fill="none" stroke="#A5B4FC" stroke-width="4" stroke-opacity="0.6" />

    <!-- Bottom Left / Right Envelope Fold Lines -->
    <path d="M48 400 L210 260" stroke="#312E81" stroke-width="8" stroke-linecap="round" opacity="0.6" />
    <path d="M464 400 L302 260" stroke="#312E81" stroke-width="8" stroke-linecap="round" opacity="0.6" />

    <!-- White / Light Accent Document Peeking -->
    <rect x="100" y="70" width="312" height="150" rx="20" fill="#FFFFFF" opacity="0.95" />
    <line x1="140" y1="105" x2="260" y2="105" stroke="#CBD5E1" stroke-width="8" stroke-linecap="round" />
    <line x1="140" y1="125" x2="330" y2="125" stroke="#E2E8F0" stroke-width="8" stroke-linecap="round" />

    <!-- Top Triangle Flap with 3D Depth -->
    <path d="M48 116 L256 280 L464 116" fill="url(#flapGrad)" filter="url(#flapShadow)" />
    <path d="M48 116 L256 280 L464 116" fill="none" stroke="#C7D2FE" stroke-width="5" stroke-linecap="round" stroke-linejoin="round" opacity="0.8" />
    
    <!-- Left Wing Shadow -->
    <path d="M48 116 L48 400 L256 248 Z" fill="#4338CA" opacity="0.4" />
    <!-- Right Wing Shadow -->
    <path d="M464 116 L464 400 L256 248 Z" fill="#3730A3" opacity="0.4" />
  </g>

  <!-- Central Verification Seal / Star Badge (Golden VIP Shield) -->
  <g filter="url(#goldGlow)">
    <!-- Golden Circular Badge -->
    <circle cx="256" cy="275" r="54" fill="url(#goldGrad)" />
    <circle cx="256" cy="275" r="48" fill="none" stroke="#FEF08A" stroke-width="4" />

    <!-- Sharp Electric Lightning / Fast Speed Exchange Symbol -->
    <path d="M262 238 L238 274 L256 274 L250 312 L276 270 L258 270 Z" fill="#FFFFFF" />
  </g>

  <!-- Top Right Verified Sparkle -->
  <g transform="translate(390, 80) scale(0.9)">
    <circle cx="20" cy="20" r="22" fill="#10B981" />
    <path d="M12 20 L18 26 L29 14" fill="none" stroke="#FFFFFF" stroke-width="4.5" stroke-linecap="round" stroke-linejoin="round" />
  </g>
</svg>